<svg width="24" height="23" viewBox="0 0 24 23" fill="none" xmlns="http://www.w3.org/2000/svg">
<path d="M22.0961 2.16804C20.8537 0.769985 19.149 0 17.2956 0C15.9102 0 14.6415 0.45443 13.5245 1.35056C12.9609 1.8029 12.4503 2.35631 12 3.00224C11.5499 2.3565 11.0391 1.8029 10.4753 1.35056C9.35852 0.45443 8.08978 0 6.70441 0C4.85101 0 3.14612 0.769985 1.90375 2.16804C0.676208 3.54976 0 5.43739 0 7.48347C0 9.58939 0.756409 11.5171 2.38037 13.5503C3.83313 15.3689 5.92108 17.2151 8.33899 19.353C9.16461 20.0831 10.1005 20.9106 11.0722 21.7921C11.3289 22.0254 11.6583 22.1538 12 22.1538C12.3415 22.1538 12.6711 22.0254 12.9274 21.7925C13.8992 20.9108 14.8356 20.0829 15.6616 19.3524C18.0791 17.215 20.1671 15.3689 21.6198 13.5501C23.2438 11.5171 24 9.58939 24 7.48328C24 5.43739 23.3238 3.54976 22.0961 2.16804Z" fill="#3544C4"/>
</svg>
