<svg width="24" height="24" viewBox="0 0 24 24" fill="none" xmlns="http://www.w3.org/2000/svg">
<path fill-rule="evenodd" clip-rule="evenodd" d="M24 12C24 5.37256 18.6274 0 12 0C5.37256 0 0 5.37256 0 12C0 18.6274 5.37256 24 12 24H24V22H18.625C21.98 19.7788 23.9985 16.0239 24 12ZM17.8779 20.0903C16.5376 21.064 14.6611 20.7671 13.6875 19.4263C12.7139 18.0859 13.0107 16.21 14.3511 15.2358C15.6919 14.2622 17.5679 14.5591 18.5415 15.8999C19.5156 17.2402 19.2183 19.1162 17.8779 20.0903ZM21.5107 8.90967C20.9985 7.33398 19.3062 6.47168 17.7305 6.98389C16.1548 7.49561 15.2925 9.18848 15.8042 10.7642C16.3164 12.3398 18.0088 13.2021 19.5845 12.6899C21.1602 12.1782 22.0225 10.4858 21.5107 8.90967ZM12 2C13.6567 2 15 3.34326 15 5C15 6.65674 13.6567 8 12 8C10.3433 8 9 6.65674 9 5C9 3.34326 10.3433 2 12 2ZM6.26953 6.9834C4.69385 6.47168 3.00146 7.33398 2.48926 8.90967C1.97754 10.4858 2.83984 12.1782 4.41553 12.6899C5.99121 13.2017 7.68359 12.3394 8.1958 10.7637C8.70752 9.18799 7.84521 7.49561 6.26953 6.9834ZM10.3125 19.4263C9.33887 20.7671 7.4624 21.064 6.12207 20.0903C4.78174 19.1162 4.48438 17.2402 5.4585 15.8999C6.43213 14.5596 8.30859 14.2622 9.64893 15.2363C10.9893 16.21 11.2861 18.0859 10.3125 19.4263ZM12 11C11.4478 11 11 11.4478 11 12C11 12.5522 11.4478 13 12 13C12.5522 13 13 12.5522 13 12C13 11.4478 12.5522 11 12 11Z" fill="#CDCECF"/>
</svg>
