<svg width="20" height="23" viewBox="0 0 20 23" fill="none" xmlns="http://www.w3.org/2000/svg">
<g opacity="0.160319">
<path d="M9.5 0C5.9159 0 3 2.9159 3 6.5C3 10.0841 5.9159 13 9.5 13C13.0841 13 16 10.0841 16 6.5C16 2.9159 13.0841 0 9.5 0Z" fill="black"/>
<path d="M17.4652 16.4705C15.8225 14.8774 13.6448 14 11.3333 14H8.66667C6.3552 14 4.17751 14.8774 2.53484 16.4705C0.900222 18.0559 0 20.1486 0 22.3632C0 22.7149 0.298489 23 0.666667 23H19.3333C19.7015 23 20 22.7149 20 22.3632C20 20.1486 19.0998 18.0559 17.4652 16.4705Z" fill="black"/>
</g>
</svg>
