<svg width="24" height="24" viewBox="0 0 24 24" fill="none" xmlns="http://www.w3.org/2000/svg">
<path fill-rule="evenodd" clip-rule="evenodd" d="M21.2928 12.905L23.5517 14.63C23.9736 14.957 24.0883 15.532 23.8261 16L21.4668 19.99C21.2825 20.32 20.917 20.532 20.5197 20.532C20.3814 20.532 20.2473 20.507 20.1182 20.458L17.4456 19.41C16.9111 19.782 16.3847 20.081 15.8482 20.318L15.4416 23.088C15.3761 23.604 14.9092 24 14.3572 24H9.64684C9.09388 24 8.62794 23.604 8.56141 23.078L8.15591 20.318C7.60189 20.074 7.06636 19.77 6.55641 19.411L3.89092 20.456C3.32773 20.658 2.78298 20.426 2.53209 19.979L0.183015 16.01C-0.0842492 15.532 0.0294148 14.957 0.449271 14.632L2.71026 12.906C2.67445 12.568 2.65703 12.2751 2.65703 12C2.65703 11.725 2.67441 11.432 2.71026 11.095L0.451335 9.37003C0.0222628 9.03802 -0.0924092 8.44303 0.185079 7.98502L2.53717 4.011C2.78601 3.56498 3.38505 3.35302 3.88583 3.54202L6.55847 4.59C7.09199 4.21903 7.61932 3.91903 8.15591 3.68302L8.56242 0.912C8.62799 0.396 9.09388 0 9.64583 0H14.3562C14.9081 0 15.3751 0.396 15.4416 0.920016L15.8471 3.681C16.4011 3.924 16.9367 4.22798 17.4477 4.58798L20.1131 3.543C20.6712 3.342 21.2211 3.57202 21.472 4.02L23.821 7.98905C24.0883 8.46802 23.9736 9.04303 23.5538 9.36703L21.2928 11.093C21.3225 11.359 21.346 11.67 21.346 11.999C21.346 12.328 21.3214 12.639 21.2928 12.905ZM7.90501 12C7.90501 14.206 9.74207 16 12.001 16C14.2599 16 16.097 14.206 16.097 12C16.097 9.79401 14.2599 8.00002 12.001 8.00002C9.74207 8.00002 7.90501 9.79401 7.90501 12Z" fill="black"/>
</svg>
